<svg xmlns="http://www.w3.org/2000/svg" viewBox="0 0 24 24" fill="currentColor">
  <path d="M20.067 8.478c.492.88.556 2.014.3 3.327-.74 3.806-3.276 5.12-6.514 5.12h-.5a.805.805 0 0 0-.794.68l-.04.22-.63 3.993-.028.15a.805.805 0 0 1-.793.68H8.25c-.414 0-.729-.31-.661-.718l.05-.268 1.03-6.53.01-.07a.805.805 0 0 1 .793-.68h.5c2.615 0 4.662-.844 5.262-3.288.3-1.22.145-2.24-.48-2.95a2.215 2.215 0 0 0-.427-.367c.182-.8.217-1.41.119-1.818-.306-1.264-1.305-2.084-2.788-2.084H5.813a.805.805 0 0 0-.794.68L2.145 19.477c-.068.408.247.718.661.718h4.643l1.165-7.39-.037.23a.805.805 0 0 1 .794-.68h1.657c3.238 0 5.774-1.314 6.514-5.12.06-.307.09-.6.09-.88a3.97 3.97 0 0 0-.565 2.123z"/>
</svg>
